Coordinates
version=1
nRows=13
nColumns=38
inDegrees=no

Units are S.I. units (second, meters, Newtons, ...)
If the header above contains a line with 'inDegrees', this indicates whether rotational values are in degrees (yes) or radians (no).

endheader
time	pelvis_tilt	pelvis_list	pelvis_rotation	pelvis_tx	pelvis_ty	pelvis_tz	hip_flexion_r	hip_adduction_r	hip_rotation_r	knee_angle_r	ankle_angle_r	subtalar_angle_r	mtp_angle_r	hip_flexion_l	hip_adduction_l	hip_rotation_l	knee_angle_l	ankle_angle_l	subtalar_angle_l	mtp_angle_l	lumbar_extension	lumbar_bending	lumbar_rotation	arm_flex_r	arm_add_r	arm_rot_r	elbow_flex_r	pro_sup_r	wrist_flex_r	wrist_dev_r	arm_flex_l	arm_add_l	arm_rot_l	elbow_flex_l	pro_sup_l	wrist_flex_l	wrist_dev_l
4.29	-1.44028	1.4874	-0.606724	0.997734	-0.383777	0.961768	0.259747	-0.182471	-0.0134441	0.209316	-0.087374	0	0	-0.173184	-0.0866567	-0.228918	0.139914	0.169969	0	0	-0.0036158	0.0403712	-0.207612	-0.228146	-0.0442534	-1.5708	0	0.660427	0	0	-0.233168	-0.232604	0.213511	0.542084	0.874647	0	0
4.3	-1.43431	1.48805	-0.609044	0.994379	-0.385748	0.961135	0.256635	-0.185956	-0.00979494	0.204862	-0.0893299	0	0	-0.175041	-0.0897223	-0.22686	0.143085	0.17369	0	0	-0.00218048	0.0395394	-0.20564	-0.229851	-0.0450428	-1.5708	0	0.665326	0	0	-0.232525	-0.233522	0.21664	0.53802	0.869713	0	0
4.31	-1.42518	1.48893	-0.613786	0.990939	-0.387724	0.960478	0.252519	-0.189583	-0.00536795	0.199186	-0.0914219	0	0	-0.176504	-0.0927645	-0.224144	0.14685	0.177641	0	0	-0.000833676	0.0383108	-0.204275	-0.23128	-0.0453633	-1.5708	0	0.667682	0	0	-0.23224	-0.234717	0.218933	0.535099	0.864654	0	0
4.32	-1.41784	1.49001	-0.616174	0.987403	-0.38971	0.959765	0.248461	-0.192988	-0.00189662	0.19406	-0.0934248	0	0	-0.177139	-0.0960831	-0.221539	0.15153	0.18195	0	0	0.000644277	0.0369696	-0.203244	-0.232643	-0.0456119	-1.5708	0	0.669189	0	0	-0.232245	-0.236185	0.220712	0.533252	0.86014	0	0
4.33	-1.4129	1.49114	-0.615836	0.983795	-0.391668	0.959016	0.244866	-0.196004	0.00123364	0.190065	-0.0950089	0	0	-0.176991	-0.0997277	-0.219243	0.157168	0.18683	0	0	0.00215941	0.0357739	-0.20253	-0.233897	-0.0461103	-1.5708	0	0.672683	0	0	-0.232323	-0.237591	0.221335	0.531899	0.856603	0	0
4.34	-1.4045	1.49216	-0.618668	0.980098	-0.393599	0.958283	0.241006	-0.19873	0.00450557	0.186756	-0.0963891	0	0	-0.176897	-0.103447	-0.216442	0.163143	0.191358	0	0	0.00276745	0.0346312	-0.20185	-0.234937	-0.0466162	-1.5708	0	0.679905	0	0	-0.232091	-0.238534	0.218924	0.530681	0.85561	0	0
4.35	-1.39295	1.49287	-0.624134	0.976304	-0.395522	0.957564	0.236958	-0.200975	0.00725504	0.184838	-0.0971164	0	0	-0.177195	-0.107406	-0.212571	0.168935	0.195498	0	0	0.00254679	0.0337552	-0.201311	-0.235889	-0.0474723	-1.5708	0	0.689829	0	0	-0.231487	-0.23892	0.213648	0.529315	0.858109	0	0
4.36	-1.38322	1.49358	-0.627076	0.972425	-0.397443	0.956828	0.232947	-0.202775	0.00992983	0.183863	-0.0972397	0	0	-0.177207	-0.111632	-0.207636	0.174732	0.198985	0	0	0.0032397	0.0329363	-0.200638	-0.236895	-0.047872	-1.5708	0	0.697472	0	0	-0.230627	-0.240846	0.214156	0.528968	0.859521	0	0
4.37	-1.34811	1.49413	-0.654522	0.968475	-0.399019	0.956275	0.227452	-0.205166	0.013324	0.183741	-0.0978585	0	0	-0.177304	-0.1155	-0.201478	0.182492	0.202099	0	0	-0.000477974	0.0304708	-0.203967	-0.234581	-0.0479145	-1.5708	0	0.727863	0	0	-0.193711	-0.234727	-0.00468729	0.442342	1.5708	0	0
4.38	-1.71632	1.51468	-0.275974	0.962234	-0.403062	0.95366	0.253962	-0.212446	0.0149305	0.185824	-0.0950251	0	0	-0.144061	-0.115795	-0.191082	0.190297	0.204157	0	0	0.0484768	0.0183491	-0.207581	-0.252834	-0.0443543	-1.5708	0	0.765555	0	0	-0.244591	-0.238732	0.177297	0.515371	0.922397	0	0
4.39	-1.34236	1.49567	-0.645067	0.960556	-0.402565	0.955105	0.220545	-0.205855	0.0239927	0.185095	-0.103595	0	0	-0.173862	-0.125198	-0.187171	0.196108	0.207776	0	0	-0.00321383	0.0288983	-0.205932	-0.232083	-0.0489299	-1.5708	0	0.764078	0	0	-0.229122	-0.241083	0.178593	0.529123	0.901947	0	0
4.4	-1.6865	1.51718	-0.291103	0.953649	-0.406722	0.952235	0.245797	-0.213443	0.0283801	0.189428	-0.0983787	0	0	-0.143564	-0.124095	-0.178035	0.202251	0.209881	0	0	0.0467389	0.0141238	-0.207626	-0.251763	-0.0442394	-1.5708	0	0.764051	0	0	-0.245427	-0.245472	0.180773	0.524915	0.898728	0	0
4.41	-1.69472	1.51943	-0.275405	0.949083	-0.408548	0.95129	0.243962	-0.213688	0.0372264	0.193786	-0.100375	0	0	-0.141295	-0.128138	-0.171942	0.209151	0.212812	0	0	0.0485178	0.0120397	-0.206333	-0.252548	-0.0436963	-1.5708	0	0.762369	0	0	-0.244853	-0.248832	0.183146	0.527763	0.896069	0	0
